<svg xmlns="http://www.w3.org/2000/svg" width="900" height="444" viewBox="0 0 900 444" role="img" aria-label="Top sign-in failure codes">
<style>text{font-family:-apple-system,'Segoe UI',Helvetica,Arial,sans-serif}</style>
<rect width="900" height="444" rx="12" fill="#0b1b33"/>
<text x="24" y="34" font-size="17" font-weight="700" fill="#ffffff">Top sign-in failure codes</text>
<text x="24" y="56" font-size="12.5" fill="#8fb3dd">6,000 failed sign-ins over 30 days (synthetic sample). Each code maps to a playbook scenario</text>
<text x="290" y="97" font-size="12.5" fill="#c3c2b7" text-anchor="end">50126 · Invalid username or password</text>
<rect x="300" y="84" width="530.0" height="22" rx="4" fill="#3987e5"><title>50126 · Invalid username or password: 1,608</title></rect>
<text x="838.0" y="97" font-size="12" font-weight="600" fill="#ffffff">1,608</text>
<text x="290" y="131" font-size="12.5" fill="#c3c2b7" text-anchor="end">500121 · MFA challenge failed</text>
<rect x="300" y="118" width="233.7" height="22" rx="4" fill="#3987e5"><title>500121 · MFA challenge failed: 709</title></rect>
<text x="541.7" y="131" font-size="12" font-weight="600" fill="#ffffff">709</text>
<text x="290" y="165" font-size="12.5" fill="#c3c2b7" text-anchor="end">53003 · Blocked by Conditional Access</text>
<rect x="300" y="152" width="217.5" height="22" rx="4" fill="#3987e5"><title>53003 · Blocked by Conditional Access: 660</title></rect>
<text x="525.5" y="165" font-size="12" font-weight="600" fill="#ffffff">660</text>
<text x="290" y="199" font-size="12.5" fill="#c3c2b7" text-anchor="end">50053 · Account locked (smart lockout)</text>
<rect x="300" y="186" width="179.6" height="22" rx="4" fill="#3987e5"><title>50053 · Account locked (smart lockout): 545</title></rect>
<text x="487.6" y="199" font-size="12" font-weight="600" fill="#ffffff">545</text>
<text x="290" y="233" font-size="12.5" fill="#c3c2b7" text-anchor="end">50074 · MFA required, not completed</text>
<rect x="300" y="220" width="160.8" height="22" rx="4" fill="#3987e5"><title>50074 · MFA required, not completed: 488</title></rect>
<text x="468.8" y="233" font-size="12" font-weight="600" fill="#ffffff">488</text>
<text x="290" y="267" font-size="12.5" fill="#c3c2b7" text-anchor="end">53000 · Device not compliant</text>
<rect x="300" y="254" width="119.3" height="22" rx="4" fill="#3987e5"><title>53000 · Device not compliant: 362</title></rect>
<text x="427.3" y="267" font-size="12" font-weight="600" fill="#ffffff">362</text>
<text x="290" y="301" font-size="12.5" fill="#c3c2b7" text-anchor="end">50105 · User not assigned to app</text>
<rect x="300" y="288" width="97.2" height="22" rx="4" fill="#3987e5"><title>50105 · User not assigned to app: 295</title></rect>
<text x="405.2" y="301" font-size="12" font-weight="600" fill="#ffffff">295</text>
<text x="290" y="335" font-size="12.5" fill="#c3c2b7" text-anchor="end">70043 · Sign-in frequency expired</text>
<rect x="300" y="322" width="90.6" height="22" rx="4" fill="#3987e5"><title>70043 · Sign-in frequency expired: 275</title></rect>
<text x="398.6" y="335" font-size="12" font-weight="600" fill="#ffffff">275</text>
<text x="290" y="369" font-size="12.5" fill="#c3c2b7" text-anchor="end">50055 · Password expired</text>
<rect x="300" y="356" width="79.4" height="22" rx="4" fill="#3987e5"><title>50055 · Password expired: 241</title></rect>
<text x="387.4" y="369" font-size="12" font-weight="600" fill="#ffffff">241</text>
<text x="290" y="403" font-size="12.5" fill="#c3c2b7" text-anchor="end">7000222 · Client secret expired</text>
<rect x="300" y="390" width="65.3" height="22" rx="4" fill="#3987e5"><title>7000222 · Client secret expired: 198</title></rect>
<text x="373.3" y="403" font-size="12" font-weight="600" fill="#ffffff">198</text>
</svg>